<svg width="49" height="48" viewBox="0 0 49 48" fill="none" xmlns="http://www.w3.org/2000/svg">
<path fill-rule="evenodd" clip-rule="evenodd" d="M41.7934 14.24L41.5134 13.74C41.1522 13.1354 40.6428 12.6329 40.0334 12.28L26.6134 4.54C26.0058 4.1875 25.316 4.00124 24.6134 4H24.0334C23.3308 4.00124 22.641 4.1875 22.0334 4.54L8.61337 12.3C8.00731 12.6505 7.50389 13.1539 7.15337 13.76L6.87337 14.26C6.52087 14.8677 6.33461 15.5575 6.33337 16.26V31.76C6.33461 32.4626 6.52087 33.1524 6.87337 33.76L7.15337 34.26C7.51295 34.859 8.01435 35.3604 8.61337 35.72L22.0534 43.46C22.658 43.8198 23.3498 44.0066 24.0534 44H24.6134C25.316 43.9988 26.0058 43.8126 26.6134 43.46L40.0334 35.7C40.6454 35.3574 41.1508 34.852 41.4934 34.24L41.7934 33.74C42.1416 33.1306 42.3276 32.442 42.3334 31.74V16.24C42.3322 15.5375 42.146 14.8477 41.7934 14.24ZM24.0334 8H24.6134L36.3334 14.76L24.3334 21.68L12.3334 14.76L24.0334 8ZM26.3334 39L38.0334 32.24L38.3334 31.74V18.22L26.3334 25.16V39Z" fill="black"/>
</svg>
